# xmcd
#
# Track frame offsets: 
#        150
#        11421
#        20188
#        31935
#        45563
#        59917
#        67709
#        79403
#        91057
#        102679
#        115110
#        128670
#        145315
#
# Disc length: 2099 seconds
#
# Revision: 0
# Processed by: cddbd v1.5.2PL0 Copyright (c) Steve Scherf et al.
# Submitted via: ExactAudioCopy v0.99pb4
#
DISCID=ae08310d
DTITLE=Ryaan, Chuck, With Sherry Holly - Little Bim's Christmas Album
DYEAR=2001
DGENRE=Christmas/Holiday
TTITLE0=Chuck Ryaan - Little Bim, The Christmas Elf
TTITLE1=Chuck Ryaan - Cowboy Santa
TTITLE2=Sherry Holly - Are There Christmas Trees In Heaven
TTITLE3=Chuck Ryaan - Christmas Bells Across The Plains
TTITLE4=Sherry Holly - Cowgirl's Christmas Dream
TTITLE5=Chuck Ryaan - Old Western Santa
TTITLE6=Chuck Ryaan - Christmas Waltz
TTITLE7=Sherry Holly - Cowboy's Christmas
TTITLE8=Chuck Ryaan - Western Jingle Bells
TTITLE9=Sherry Holly - Oh Little Town Of Bethlehem
TTITLE10=Chuck Ryaan - Silent Night
TTITLE11=Sherry Holly - Ponis Angelicus
TTITLE12=Chuck Ryaan - O' Come All Ye Faithful
EXTD=
EXTT0=
EXTT1=
EXTT2=
EXTT3=
EXTT4=
EXTT5=
EXTT6=
EXTT7=
EXTT8=
EXTT9=
EXTT10=
EXTT11=
EXTT12=
PLAYORDER=
